<svg className="fill-current cursor-pointer text-gray-500 hover:text-gray-400" width="100%" height="100%" viewBox="0 0 24 24" version="1.1" xmlns="http://www.w3.org/2000/svg" xmlnsXlink="http://www.w3.org/1999/xlink" xmlSpace="preserve" xmlnsSerif="http://www.serif.com/" style={{ fillRule: 'evenodd', clipRule: 'evenodd', strokeLinejoin: 'round', strokeMiterlimit: 2, stroke: 'currentColor' }}>
                <g id="Layer_1">
                  <circle id="Oval" cx="12" cy="12" r="12"></circle>
                  <path id="Shape" d="M8.6,11.9c0.4-0.1,0.7-0.2,1.1-0.2c0.3,0,0.6,0.1,0.9,0.2c0.2,0.1,0.5,0.3,0.5,0.6c0,0.2-0.1,0.4-0.3,0.5c-0.2,0.1-0.4,0.1-0.6,0.1c-0.4,0-0.7-0.2-1.1-0.2c-0.3,0-0.6,0.2-0.8,0.3v0.6h-0.8v-2h0.8v0.3c0.2-0.2,0.5-0.4,0.9-0.4Z M7.8,13.6h1v-0.7c-0.3,0.2-0.6,0.2-1,0.2c-0.3,0-0.6,0-0.8-0.2c-0.2-0.2-0.3-0.5-0.3-0.8c0-0.4,0.2-0.7,0.5-0.9c0.3-0.2,0.7-0.2,1-0.2c0.3,0,0.6,0,0.9,0.1v-0.5c-0.3-0.1-0.6-0.1-0.9-0.1c-0.6,0-1.1,0.2-1.5,0.6c-0.4,0.4-0.5,0.9-0.5,1.4c0,0.5,0.2,1,0.5,1.4c0.4,0.4,0.9,0.6,1.5,0.6c0.3,0,0.6,0,0.9-0.1v-0.5c-0.3,0.1-0.6,0.1-0.9,0.1c-0.3,0-0.6,0-0.9-0.1c-0.3-0.1-0.5-0.3-0.6-0.6C7.2,13.2,7.4,13,7.8,13.6Z M14.8,12.1v0.4h-0.8v1.5h-0.8v-1.5h-1v-0.4H14.8z M11.8,12.1v0.4h-1v1.1h1v0.4h-1.8v-2h1.8v0.4H11.8z M12.8,11.2c-0.3,0-0.5,0-0.8,0.1v0.5h0.8v-0.1c0-0.2,0.1-0.3,0.2-0.4c0.1-0.1,0.3-0.1,0.5-0.1c0.3,0,0.5,0.1,0.7,0.3c0.2,0.2,0.3,0.4,0.3,0.7c0,0.3-0.1,0.5-0.3,0.7c-0.2,0.2-0.4,0.3-0.7,0.3c-0.2,0-0.4,0-0.5-0.1c-0.2-0.1-0.2-0.3-0.2-0.5h0.8c0,0.1,0,0.2,0.1,0.3c0.1,0.1,0.2,0.2,0.4,0.2c0.2,0,0.3,0,0.5-0.1c0.1-0.1,0.2-0.2,0.3-0.4c0.1-0.2,0.1-0.4,0.1-0.7c0-0.3-0.1-0.6-0.3-0.8C13.4,11.3,13.1,11.2,12.8,11.2Z M17.6,12.1v0.4h-0.8v1.5h-0.8v-1.5h-1v-0.4H17.6z"></path>
                </g>
              </svg>