<svg
                className="fill-current cursor-pointer text-gray-500 hover:text-gray-400"
                width="100%"
                height="100%"
                viewBox="0 0 24 24"
                version="1.1"
                xmlns="http://www.w3.org/2000/svg"
                xmlnsXlink="http://www.w3.org/1999/xlink"
                xmlSpace="preserve"
                xmlnsSerif="http://www.serif.com/"
                style={{
                  fillRule: "evenodd",
                  clipRule: "evenodd",
                  strokeLinejoin: "round",
                  strokeMiterlimit: 2,
                  stroke: "currentColor",
                }}>
                <g id="Layer_1">
                  <circle id="Oval" cx="12" cy="12" r="12"></circle>
                  <path
                    id="Shape"
                    d="M17.8,10.7c-0.1-0.7-0.4-1.2-0.8-1.6c-0.4-0.4-1-0.6-1.7-0.6c-0.9,0-1.6,0.3-2.2,0.8c-0.5,0.5-0.8,1.1-0.9,1.9h-2.2v6.4h3.8v-2.9h1.1l0.5-3.5h-1.6c0,0.4,0.1,0.8,0.2,1.2c0.2,0.4,0.5,0.8,0.9,1c0.4,0.3,0.9,0.4,1.4,0.4c0.6,0,1.1-0.2,1.6-0.5c0.5-0.3,0.8-0.8,1-1.4c0.2-0.5,0.3-1,0.3-1.5C18,11.7,17.9,11.2,17.8,10.7Z M21.5,12c0-0.9-0.3-1.7-0.8-2.4c-0.6-0.7-1.4-1.1-2.4-1.1c-0.9,0-1.6,0.3-2.2,0.8c-0.6,0.5-1,1.2-1.2,2c-0.1,0.3-0.2,0.7-0.2,1.1c0,0.4,0.1,0.8,0.2,1.1c0.1,0.3,0.2,0.7,0.4,1c0.3,0.4,0.6,0.7,1,1c0.4,0.3,0.8,0.5,1.2,0.6c0.5,0.1,1,0.2,1.6,0.2c0.9,0,1.7-0.2,2.4-0.6c0.7-0.4,1.3-1,1.7-1.8c0.4-0.8,0.6-1.7,0.6-2.6c0-0.6-0.1-1.1-0.3-1.6C21.6,12.7,21.5,12.4,21.5,12Z"></path>
                </g>
              </svg>