       <svg
                className="fill-current cursor-pointer text-gray-500 hover:text-gray-400"
                width="100%"
                height="100%"
                viewBox="0 0 24 24"
                version="1.1"
                xmlns="http://www.w3.org/2000/svg"
                xmlnsXlink="http://www.w3.org/1999/xlink"
                xmlSpace="preserve"
                xmlnsSerif="http://www.serif.com/"
                style={{
                  fillRule: "evenodd",
                  clipRule: "evenodd",
                  strokeLinejoin: "round",
                  strokeMiterlimit: 2,
                  stroke: "currentColor",
                }}>
                <g id="Layer_1">
                  <circle id="Oval" cx="12" cy="12" r="12"></circle>
                  <path
                    id="Shape"
                    d="M15.3,9.8V9.7c0-1.4-0.8-2.5-2.1-2.5s-2.1,1.1-2.1,2.5v0.1h1.3l0-0.1c0-0.5,0.3-0.9,0.8-0.9c0.5,0,0.8,0.4,0.8,0.9v2.1c0,0.5-0.3,0.9-0.8,0.9c-0.5,0-0.8-0.4-0.8-0.9V11H9.5c0,1.7,1.1,2.9,2.7,2.9c1.6,0,2.7-1.2,2.7-2.9v-0.2h-0.1Z"></path>
                </g>
              </svg>